# MagicaVoxel @ Ephtracy

# group
o 

# material
mtllib Monster2.mtl
usemtl palette

# normals
vn -1 0 0
vn 1 0 0
vn 0 0 1
vn 0 0 -1
vn 0 -1 0
vn 0 1 0

# texcoords
vt 0.841797 0.5
vt 0.904297 0.5
vt 0.982422 0.5

# verts
v -0.4 0 0.5
v -0.4 0 -0.5
v -0.4 0.1 0.4
v -0.4 0.1 -0.4
v -0.4 0.2 0.4
v -0.4 0.2 -0.4
v -0.4 0.3 0.5
v -0.4 0.3 -0.5
v -0.3 0.1 0.4
v -0.3 0.1 -0.4
v -0.3 0.2 0.4
v -0.3 0.2 -0.4
v -0.2 0.3 0.4
v -0.2 0.3 -0.4
v -0.2 0.4 0.4
v -0.2 0.4 -0.4
v -0.1 0.2 0.5
v -0.1 0.2 0.4
v -0.1 0.3 0.4
v -0.1 0.4 0.5
v -0.1 0.4 0.4
v -0.1 0.4 -0.3
v -0.1 0.5 0.4
v -0.1 0.5 0.1
v -0.1 0.5 -0.2
v -0.1 0.5 -0.3
v -0.1 0.6 0.1
v -0.1 0.6 -0.2
v 0.3 0 0.5
v 0.3 0 0.4
v 0.3 0 -0.4
v 0.3 0 -0.5
v 0.3 0.3 0.5
v 0.3 0.3 0.4
v 0.3 0.3 -0.4
v 0.3 0.3 -0.5
v -0.3 0 0.5
v -0.3 0 0.4
v -0.3 0 -0.4
v -0.3 0 -0.5
v -0.3 0.1 -0.4
v -0.3 0.3 0.5
v -0.3 0.3 0.4
v -0.3 0.3 -0.4
v -0.3 0.3 -0.5
v 0.1 0.2 0.5
v 0.1 0.2 0.4
v 0.1 0.3 0.4
v 0.1 0.4 0.5
v 0.1 0.4 0.4
v 0.1 0.4 -0.3
v 0.1 0.5 0.4
v 0.1 0.5 0.1
v 0.1 0.5 -0.2
v 0.1 0.5 -0.3
v 0.1 0.6 0.1
v 0.1 0.6 -0.2
v 0.2 0.3 0.4
v 0.2 0.3 -0.4
v 0.2 0.4 0.4
v 0.2 0.4 -0.4
v 0.3 0.1 0.4
v 0.3 0.1 -0.4
v 0.3 0.2 0.4
v 0.3 0.2 -0.4
v 0.4 0 0.5
v 0.4 0 -0.5
v 0.4 0.1 0.4
v 0.4 0.1 -0.4
v 0.4 0.2 0.4
v 0.4 0.2 -0.4
v 0.4 0.3 0.5
v 0.4 0.3 -0.5
v -0.4 0 0.5
v -0.4 0.3 0.5
v -0.3 0 0.5
v -0.3 0.3 0.5
v -0.1 0.2 0.5
v -0.1 0.4 0.5
v 0.1 0.2 0.5
v 0.1 0.4 0.5
v 0.3 0 0.5
v 0.3 0.3 0.5
v 0.4 0 0.5
v 0.4 0.3 0.5
v -0.3 0 0.4
v -0.3 0.3 0.4
v -0.2 0.3 0.4
v -0.2 0.4 0.4
v -0.1 0.2 0.4
v -0.1 0.3 0.4
v -0.1 0.4 0.4
v -0.1 0.5 0.4
v 0.1 0.2 0.4
v 0.1 0.3 0.4
v 0.1 0.4 0.4
v 0.1 0.5 0.4
v 0.2 0.3 0.4
v 0.2 0.4 0.4
v 0.3 0 0.4
v 0.3 0.3 0.4
v -0.1 0.5 0.1
v -0.1 0.6 0.1
v 0.1 0.5 0.1
v 0.1 0.6 0.1
v -0.4 0.1 -0.4
v -0.4 0.2 -0.4
v -0.3 0.1 -0.4
v -0.3 0.2 -0.4
v 0.3 0.1 -0.4
v 0.3 0.2 -0.4
v 0.4 0.1 -0.4
v 0.4 0.2 -0.4
v -0.4 0.1 0.4
v -0.4 0.2 0.4
v -0.3 0.1 0.4
v -0.3 0.2 0.4
v 0.3 0.1 0.4
v 0.3 0.2 0.4
v 0.4 0.1 0.4
v 0.4 0.2 0.4
v -0.1 0.5 -0.2
v -0.1 0.6 -0.2
v 0.1 0.5 -0.2
v 0.1 0.6 -0.2
v -0.1 0.4 -0.3
v -0.1 0.5 -0.3
v 0.1 0.4 -0.3
v 0.1 0.5 -0.3
v -0.3 0 -0.4
v -0.3 0.1 -0.4
v -0.3 0.3 -0.4
v -0.2 0.1 -0.4
v -0.2 0.3 -0.4
v -0.2 0.4 -0.4
v 0.2 0 -0.4
v 0.2 0.3 -0.4
v 0.2 0.4 -0.4
v 0.3 0 -0.4
v 0.3 0.3 -0.4
v -0.4 0 -0.5
v -0.4 0.3 -0.5
v -0.3 0 -0.5
v -0.3 0.3 -0.5
v 0.3 0 -0.5
v 0.3 0.3 -0.5
v 0.4 0 -0.5
v 0.4 0.3 -0.5
v -0.4 0 0.5
v -0.3 0 0.5
v 0.3 0 0.5
v 0.4 0 0.5
v -0.3 0 0.4
v 0.3 0 0.4
v -0.3 0 0.3
v 0.2 0 0.3
v -0.3 0 -0.4
v 0.2 0 -0.4
v 0.3 0 -0.4
v -0.4 0 -0.5
v -0.3 0 -0.5
v 0.3 0 -0.5
v 0.4 0 -0.5
v -0.1 0.2 0.5
v 0.1 0.2 0.5
v -0.4 0.2 0.4
v -0.3 0.2 0.4
v -0.1 0.2 0.4
v 0.1 0.2 0.4
v 0.3 0.2 0.4
v 0.4 0.2 0.4
v -0.4 0.2 -0.4
v -0.3 0.2 -0.4
v 0.3 0.2 -0.4
v 0.4 0.2 -0.4
v -0.4 0.1 0.4
v -0.3 0.1 0.4
v 0.3 0.1 0.4
v 0.4 0.1 0.4
v -0.4 0.1 -0.4
v -0.3 0.1 -0.4
v 0.3 0.1 -0.4
v 0.4 0.1 -0.4
v -0.4 0.3 0.5
v -0.3 0.3 0.5
v 0.3 0.3 0.5
v 0.4 0.3 0.5
v -0.3 0.3 0.4
v -0.2 0.3 0.4
v 0.2 0.3 0.4
v 0.3 0.3 0.4
v -0.3 0.3 -0.4
v -0.2 0.3 -0.4
v 0.2 0.3 -0.4
v 0.3 0.3 -0.4
v -0.4 0.3 -0.5
v -0.3 0.3 -0.5
v 0.3 0.3 -0.5
v 0.4 0.3 -0.5
v -0.1 0.4 0.5
v 0.1 0.4 0.5
v -0.2 0.4 0.4
v -0.1 0.4 0.4
v 0.1 0.4 0.4
v 0.2 0.4 0.4
v -0.1 0.4 -0.3
v 0.1 0.4 -0.3
v -0.2 0.4 -0.4
v 0.2 0.4 -0.4
v -0.1 0.5 0.4
v 0.1 0.5 0.4
v -0.1 0.5 0.1
v 0.1 0.5 0.1
v -0.1 0.5 -0.2
v 0.1 0.5 -0.2
v -0.1 0.5 -0.3
v 0.1 0.5 -0.3
v -0.1 0.6 0.1
v 0.1 0.6 0.1
v -0.1 0.6 -0.2
v 0.1 0.6 -0.2

# faces
f 3/3/1 2/3/1 1/3/1
f 4/3/1 2/3/1 3/3/1
f 5/3/1 3/3/1 1/3/1
f 6/3/1 2/3/1 4/3/1
f 7/3/1 5/3/1 1/3/1
f 7/3/1 6/3/1 5/3/1
f 8/3/1 2/3/1 6/3/1
f 8/3/1 6/3/1 7/3/1
f 11/1/1 10/1/1 9/1/1
f 12/1/1 10/1/1 11/1/1
f 15/2/1 14/2/1 13/2/1
f 16/2/1 14/2/1 15/2/1
f 19/1/1 18/1/1 17/1/1
f 20/1/1 19/1/1 17/1/1
f 21/1/1 19/1/1 20/1/1
f 23/2/1 22/2/1 21/2/1
f 24/2/1 22/2/1 23/2/1
f 25/2/1 22/2/1 24/2/1
f 26/2/1 22/2/1 25/2/1
f 27/2/1 25/2/1 24/2/1
f 28/2/1 25/2/1 27/2/1
f 33/3/1 30/3/1 29/3/1
f 34/3/1 30/3/1 33/3/1
f 35/3/1 32/3/1 31/3/1
f 36/3/1 32/3/1 35/3/1
f 39/3/2 40/3/2 41/3/2
f 37/3/2 38/3/2 42/3/2
f 42/3/2 38/3/2 43/3/2
f 41/3/2 40/3/2 44/3/2
f 44/3/2 40/3/2 45/3/2
f 46/1/2 47/1/2 48/1/2
f 46/1/2 48/1/2 49/1/2
f 49/1/2 48/1/2 50/1/2
f 50/2/2 51/2/2 52/2/2
f 52/2/2 51/2/2 53/2/2
f 53/2/2 51/2/2 54/2/2
f 54/2/2 51/2/2 55/2/2
f 53/2/2 54/2/2 56/2/2
f 56/2/2 54/2/2 57/2/2
f 58/2/2 59/2/2 60/2/2
f 60/2/2 59/2/2 61/2/2
f 62/1/2 63/1/2 64/1/2
f 64/1/2 63/1/2 65/1/2
f 66/3/2 67/3/2 68/3/2
f 68/3/2 67/3/2 69/3/2
f 66/3/2 68/3/2 70/3/2
f 69/3/2 67/3/2 71/3/2
f 66/3/2 70/3/2 72/3/2
f 70/3/2 71/3/2 72/3/2
f 71/3/2 67/3/2 73/3/2
f 72/3/2 71/3/2 73/3/2
f 76/3/3 75/3/3 74/3/3
f 77/3/3 75/3/3 76/3/3
f 80/1/3 79/1/3 78/1/3
f 81/1/3 79/1/3 80/1/3
f 84/3/3 83/3/3 82/3/3
f 85/3/3 83/3/3 84/3/3
f 88/1/3 87/1/3 86/1/3
f 90/1/3 88/1/3 86/1/3
f 91/2/3 89/2/3 88/2/3
f 91/1/3 88/1/3 90/1/3
f 92/2/3 89/2/3 91/2/3
f 94/1/3 90/1/3 86/1/3
f 96/2/3 93/2/3 92/2/3
f 97/2/3 93/2/3 96/2/3
f 98/1/3 95/1/3 94/1/3
f 98/2/3 96/2/3 95/2/3
f 99/2/3 96/2/3 98/2/3
f 100/1/3 94/1/3 86/1/3
f 100/1/3 98/1/3 94/1/3
f 101/1/3 98/1/3 100/1/3
f 104/2/3 103/2/3 102/2/3
f 105/2/3 103/2/3 104/2/3
f 108/3/3 107/3/3 106/3/3
f 109/3/3 107/3/3 108/3/3
f 112/3/3 111/3/3 110/3/3
f 113/3/3 111/3/3 112/3/3
f 114/3/4 115/3/4 116/3/4
f 116/3/4 115/3/4 117/3/4
f 118/3/4 119/3/4 120/3/4
f 120/3/4 119/3/4 121/3/4
f 122/2/4 123/2/4 124/2/4
f 124/2/4 123/2/4 125/2/4
f 126/2/4 127/2/4 128/2/4
f 128/2/4 127/2/4 129/2/4
f 130/2/4 131/2/4 133/2/4
f 131/1/4 132/1/4 133/1/4
f 133/1/4 132/1/4 134/1/4
f 130/2/4 133/2/4 136/2/4
f 134/2/4 135/2/4 136/2/4
f 133/2/4 134/2/4 136/2/4
f 136/2/4 135/2/4 137/2/4
f 137/2/4 135/2/4 138/2/4
f 136/1/4 137/1/4 139/1/4
f 139/1/4 137/1/4 140/1/4
f 141/3/4 142/3/4 143/3/4
f 143/3/4 142/3/4 144/3/4
f 145/3/4 146/3/4 147/3/4
f 147/3/4 146/3/4 148/3/4
f 153/3/5 150/3/5 149/3/5
f 154/3/5 152/3/5 151/3/5
f 155/3/5 153/3/5 149/3/5
f 155/1/5 154/1/5 153/1/5
f 156/1/5 154/1/5 155/1/5
f 157/3/5 155/3/5 149/3/5
f 157/2/5 156/2/5 155/2/5
f 158/1/5 154/1/5 156/1/5
f 158/2/5 156/2/5 157/2/5
f 159/3/5 152/3/5 154/3/5
f 159/1/5 154/1/5 158/1/5
f 160/3/5 157/3/5 149/3/5
f 161/3/5 157/3/5 160/3/5
f 162/3/5 152/3/5 159/3/5
f 163/3/5 152/3/5 162/3/5
f 168/1/5 165/1/5 164/1/5
f 169/1/5 165/1/5 168/1/5
f 172/3/5 167/3/5 166/3/5
f 173/3/5 167/3/5 172/3/5
f 174/3/5 171/3/5 170/3/5
f 175/3/5 171/3/5 174/3/5
f 176/3/6 177/3/6 180/3/6
f 180/3/6 177/3/6 181/3/6
f 178/3/6 179/3/6 182/3/6
f 182/3/6 179/3/6 183/3/6
f 184/3/6 185/3/6 188/3/6
f 186/3/6 187/3/6 191/3/6
f 188/1/6 189/1/6 192/1/6
f 184/3/6 188/3/6 192/3/6
f 192/1/6 189/1/6 193/1/6
f 190/1/6 191/1/6 194/1/6
f 191/3/6 187/3/6 195/3/6
f 194/1/6 191/1/6 195/1/6
f 184/3/6 192/3/6 196/3/6
f 196/3/6 192/3/6 197/3/6
f 195/3/6 187/3/6 198/3/6
f 198/3/6 187/3/6 199/3/6
f 200/1/6 201/1/6 203/1/6
f 203/1/6 201/1/6 204/1/6
f 202/2/6 203/2/6 206/2/6
f 204/2/6 205/2/6 207/2/6
f 202/2/6 206/2/6 208/2/6
f 206/2/6 207/2/6 208/2/6
f 207/2/6 205/2/6 209/2/6
f 208/2/6 207/2/6 209/2/6
f 210/2/6 211/2/6 212/2/6
f 212/2/6 211/2/6 213/2/6
f 214/2/6 215/2/6 216/2/6
f 216/2/6 215/2/6 217/2/6
f 218/2/6 219/2/6 220/2/6
f 220/2/6 219/2/6 221/2/6
