# MagicaVoxel @ Ephtracy

# group
o 

# material
mtllib Tlie_001.mtl
usemtl palette

# normals
vn -1 0 0
vn 1 0 0
vn 0 0 1
vn 0 0 -1
vn 0 -1 0
vn 0 1 0

# texcoords
vt 0.228516 0.5
vt 0.232422 0.5
vt 0.880859 0.5
vt 0.884766 0.5
vt 0.888672 0.5

# verts
v -0.5 0 0.5
v -0.5 0 -0.5
v -0.5 0.4 0.2
v -0.5 0.4 0.1
v -0.5 0.5 0.3
v -0.5 0.5 0.2
v -0.5 0.5 -0.3
v -0.5 0.5 -0.4
v -0.5 0.6 -0.2
v -0.5 0.6 -0.3
v -0.5 0.7 0.5
v -0.5 0.7 0.3
v -0.5 0.7 0.1
v -0.5 0.7 -0.2
v -0.5 0.7 -0.4
v -0.5 0.7 -0.5
v -0.5 1 0.5
v -0.5 1 -0.5
v 0.5 0 0.5
v 0.5 0 -0.5
v 0.5 0.3 0
v 0.5 0.3 -0.2
v 0.5 0.4 0
v 0.5 0.4 -0.2
v 0.5 0.5 0.3
v 0.5 0.5 0.2
v 0.5 0.5 -0.2
v 0.5 0.5 -0.3
v 0.5 0.6 0.2
v 0.5 0.6 0
v 0.5 0.6 -0.3
v 0.5 0.6 -0.4
v 0.5 0.7 0.5
v 0.5 0.7 0.3
v 0.5 0.7 0
v 0.5 0.7 -0.2
v 0.5 0.7 -0.4
v 0.5 0.7 -0.5
v 0.5 0.9 0.5
v 0.5 0.9 0.4
v 0.5 0.9 0.1
v 0.5 0.9 0
v 0.5 1 0.5
v 0.5 1 0.4
v 0.5 1 0.1
v 0.5 1 0
v 0.5 1 -0.5
v -0.5 0 0.5
v -0.5 0.7 0.5
v -0.5 1 0.5
v -0.4 0.5 0.5
v -0.4 0.7 0.5
v -0.4 0.8 0.5
v -0.4 1 0.5
v -0.3 0.5 0.5
v -0.3 0.6 0.5
v -0.3 0.8 0.5
v -0.3 1 0.5
v -0.2 0.6 0.5
v -0.2 0.7 0.5
v -0.1 0.3 0.5
v -0.1 0.7 0.5
v 0 0.3 0.5
v 0 0.5 0.5
v 0 0.8 0.5
v 0 0.9 0.5
v 0.1 0.5 0.5
v 0.1 0.7 0.5
v 0.2 0.5 0.5
v 0.2 0.7 0.5
v 0.3 0.5 0.5
v 0.3 0.6 0.5
v 0.3 0.8 0.5
v 0.3 0.9 0.5
v 0.4 0.6 0.5
v 0.4 0.7 0.5
v 0.4 0.9 0.5
v 0.4 1 0.5
v 0.5 0 0.5
v 0.5 0.7 0.5
v 0.5 0.9 0.5
v 0.5 1 0.5
v -0.5 0 -0.5
v -0.5 0.7 -0.5
v -0.5 1 -0.5
v -0.3 0.5 -0.5
v -0.3 0.7 -0.5
v -0.2 0.4 -0.5
v -0.2 0.5 -0.5
v -0.1 0.4 -0.5
v -0.1 0.5 -0.5
v -0.1 0.9 -0.5
v -0.1 1 -0.5
v 0 0.5 -0.5
v 0 0.7 -0.5
v 0.1 0.6 -0.5
v 0.1 0.7 -0.5
v 0.2 0.5 -0.5
v 0.2 0.6 -0.5
v 0.2 0.9 -0.5
v 0.2 1 -0.5
v 0.3 0.5 -0.5
v 0.3 0.6 -0.5
v 0.4 0.6 -0.5
v 0.4 0.7 -0.5
v 0.5 0 -0.5
v 0.5 0.7 -0.5
v 0.5 1 -0.5
v -0.5 0 0.5
v 0.5 0 0.5
v -0.5 0 -0.5
v 0.5 0 -0.5
v -0.5 1 0.5
v -0.4 1 0.5
v -0.3 1 0.5
v 0.4 1 0.5
v 0.5 1 0.5
v 0.4 1 0.4
v 0.5 1 0.4
v -0.2 1 0.3
v -0.1 1 0.3
v -0.4 1 0.2
v -0.3 1 0.2
v -0.2 1 0.2
v -0.1 1 0.2
v 0.2 1 0.1
v 0.3 1 0.1
v 0.4 1 0.1
v 0.5 1 0.1
v -0.3 1 0
v -0.2 1 0
v 0.4 1 0
v 0.5 1 0
v 0 1 -0.1
v 0.1 1 -0.1
v 0.2 1 -0.1
v 0.3 1 -0.1
v 0.4 1 -0.1
v 0 1 -0.2
v 0.1 1 -0.2
v -0.3 1 -0.3
v -0.2 1 -0.3
v 0.3 1 -0.3
v 0.4 1 -0.3
v -0.1 1 -0.4
v 0.2 1 -0.4
v -0.5 1 -0.5
v -0.1 1 -0.5
v 0.2 1 -0.5
v 0.5 1 -0.5

# faces
f 3/2/1 2/2/1 1/2/1
f 4/2/1 2/2/1 3/2/1
f 5/2/1 3/2/1 1/2/1
f 6/5/1 4/5/1 3/5/1
f 6/2/1 3/2/1 5/2/1
f 7/2/1 2/2/1 4/2/1
f 8/2/1 2/2/1 7/2/1
f 9/2/1 7/2/1 4/2/1
f 10/5/1 8/5/1 7/5/1
f 10/2/1 7/2/1 9/2/1
f 11/2/1 5/2/1 1/2/1
f 12/5/1 6/5/1 5/5/1
f 12/2/1 5/2/1 11/2/1
f 13/5/1 4/5/1 6/5/1
f 13/5/1 6/5/1 12/5/1
f 13/2/1 9/2/1 4/2/1
f 14/5/1 10/5/1 9/5/1
f 14/2/1 9/2/1 13/2/1
f 15/5/1 8/5/1 10/5/1
f 15/5/1 10/5/1 14/5/1
f 15/2/1 2/2/1 8/2/1
f 16/2/1 2/2/1 15/2/1
f 17/5/1 12/5/1 11/5/1
f 17/5/1 14/5/1 13/5/1
f 17/5/1 16/5/1 15/5/1
f 17/5/1 15/5/1 14/5/1
f 17/5/1 13/5/1 12/5/1
f 18/5/1 16/5/1 17/5/1
f 19/2/2 20/2/2 21/2/2
f 21/2/2 20/2/2 22/2/2
f 19/2/2 21/2/2 23/2/2
f 21/1/2 22/1/2 23/1/2
f 22/2/2 20/2/2 24/2/2
f 23/1/2 22/1/2 24/1/2
f 19/2/2 23/2/2 25/2/2
f 23/2/2 24/2/2 25/2/2
f 25/2/2 24/2/2 26/2/2
f 24/2/2 20/2/2 27/2/2
f 26/2/2 24/2/2 27/2/2
f 27/2/2 20/2/2 28/2/2
f 25/5/2 26/5/2 29/5/2
f 26/2/2 27/2/2 29/2/2
f 29/2/2 27/2/2 30/2/2
f 28/2/2 20/2/2 31/2/2
f 27/5/2 28/5/2 31/5/2
f 31/2/2 20/2/2 32/2/2
f 19/2/2 25/2/2 33/2/2
f 29/5/2 30/5/2 34/5/2
f 33/2/2 25/2/2 34/2/2
f 25/5/2 29/5/2 34/5/2
f 30/2/2 27/2/2 35/2/2
f 34/5/2 30/5/2 35/5/2
f 31/5/2 32/5/2 36/5/2
f 35/2/2 27/2/2 36/2/2
f 27/5/2 31/5/2 36/5/2
f 32/2/2 20/2/2 37/2/2
f 36/5/2 32/5/2 37/5/2
f 37/2/2 20/2/2 38/2/2
f 33/5/2 34/5/2 39/5/2
f 35/5/2 36/5/2 39/5/2
f 37/5/2 38/5/2 39/5/2
f 36/5/2 37/5/2 39/5/2
f 34/5/2 35/5/2 39/5/2
f 39/5/2 38/5/2 40/5/2
f 40/5/2 38/5/2 41/5/2
f 41/5/2 38/5/2 42/5/2
f 39/4/2 40/4/2 43/4/2
f 40/5/2 41/5/2 44/5/2
f 43/4/2 40/4/2 44/4/2
f 41/4/2 42/4/2 45/4/2
f 44/5/2 41/5/2 45/5/2
f 42/5/2 38/5/2 46/5/2
f 45/4/2 42/4/2 46/4/2
f 46/5/2 38/5/2 47/5/2
f 51/2/3 49/2/3 48/2/3
f 52/5/3 50/5/3 49/5/3
f 52/2/3 49/2/3 51/2/3
f 53/5/3 50/5/3 52/5/3
f 54/5/3 50/5/3 53/5/3
f 55/2/3 51/2/3 48/2/3
f 55/5/3 52/5/3 51/5/3
f 55/5/3 53/5/3 52/5/3
f 56/5/3 53/5/3 55/5/3
f 57/4/3 54/4/3 53/4/3
f 57/5/3 53/5/3 56/5/3
f 58/4/3 54/4/3 57/4/3
f 59/2/3 56/2/3 55/2/3
f 59/5/3 57/5/3 56/5/3
f 59/5/3 58/5/3 57/5/3
f 60/5/3 58/5/3 59/5/3
f 61/2/3 55/2/3 48/2/3
f 61/2/3 59/2/3 55/2/3
f 61/2/3 60/2/3 59/2/3
f 62/5/3 58/5/3 60/5/3
f 62/2/3 60/2/3 61/2/3
f 63/2/3 61/2/3 48/2/3
f 63/5/3 62/5/3 61/5/3
f 64/5/3 62/5/3 63/5/3
f 65/5/3 58/5/3 62/5/3
f 65/5/3 62/5/3 64/5/3
f 66/5/3 58/5/3 65/5/3
f 67/2/3 64/2/3 63/2/3
f 67/5/3 65/5/3 64/5/3
f 68/5/3 65/5/3 67/5/3
f 69/2/3 67/2/3 63/2/3
f 69/2/3 68/2/3 67/2/3
f 70/5/3 65/5/3 68/5/3
f 70/2/3 68/2/3 69/2/3
f 71/2/3 69/2/3 63/2/3
f 71/5/3 70/5/3 69/5/3
f 72/5/3 70/5/3 71/5/3
f 73/4/3 66/4/3 65/4/3
f 73/5/3 70/5/3 72/5/3
f 73/5/3 65/5/3 70/5/3
f 74/5/3 58/5/3 66/5/3
f 74/4/3 66/4/3 73/4/3
f 75/5/3 73/5/3 72/5/3
f 75/2/3 72/2/3 71/2/3
f 75/5/3 74/5/3 73/5/3
f 76/5/3 74/5/3 75/5/3
f 77/5/3 58/5/3 74/5/3
f 77/5/3 74/5/3 76/5/3
f 78/5/3 58/5/3 77/5/3
f 79/2/3 76/2/3 75/2/3
f 79/2/3 63/2/3 48/2/3
f 79/2/3 71/2/3 63/2/3
f 79/2/3 75/2/3 71/2/3
f 80/5/3 77/5/3 76/5/3
f 80/2/3 76/2/3 79/2/3
f 81/4/3 78/4/3 77/4/3
f 81/5/3 77/5/3 80/5/3
f 82/4/3 78/4/3 81/4/3
f 83/2/4 84/2/4 86/2/4
f 84/5/4 85/5/4 87/5/4
f 86/2/4 84/2/4 87/2/4
f 83/2/4 86/2/4 88/2/4
f 86/5/4 87/5/4 89/5/4
f 88/2/4 86/2/4 89/2/4
f 83/2/4 88/2/4 90/2/4
f 88/5/4 89/5/4 90/5/4
f 89/5/4 87/5/4 91/5/4
f 90/5/4 89/5/4 91/5/4
f 87/5/4 85/5/4 92/5/4
f 91/5/4 87/5/4 92/5/4
f 92/5/4 85/5/4 93/5/4
f 90/2/4 91/2/4 94/2/4
f 91/5/4 92/5/4 94/5/4
f 94/5/4 92/5/4 95/5/4
f 94/2/4 95/2/4 96/2/4
f 95/5/4 92/5/4 97/5/4
f 96/2/4 95/2/4 97/2/4
f 90/2/4 94/2/4 98/2/4
f 94/2/4 96/2/4 98/2/4
f 96/5/4 97/5/4 99/5/4
f 98/2/4 96/2/4 99/2/4
f 92/4/4 93/4/4 100/4/4
f 99/5/4 97/5/4 100/5/4
f 97/5/4 92/5/4 100/5/4
f 100/4/4 93/4/4 101/4/4
f 98/5/4 99/5/4 102/5/4
f 90/2/4 98/2/4 102/2/4
f 100/5/4 101/5/4 102/5/4
f 99/5/4 100/5/4 102/5/4
f 102/5/4 101/5/4 103/5/4
f 102/2/4 103/2/4 104/2/4
f 103/5/4 101/5/4 104/5/4
f 104/5/4 101/5/4 105/5/4
f 83/2/4 90/2/4 106/2/4
f 90/2/4 102/2/4 106/2/4
f 104/2/4 105/2/4 106/2/4
f 102/2/4 104/2/4 106/2/4
f 105/5/4 101/5/4 107/5/4
f 106/2/4 105/2/4 107/2/4
f 107/5/4 101/5/4 108/5/4
f 111/2/5 110/2/5 109/2/5
f 112/2/5 110/2/5 111/2/5
f 115/5/6 116/5/6 118/5/6
f 116/4/6 117/4/6 118/4/6
f 118/4/6 117/4/6 119/4/6
f 115/5/6 118/5/6 120/5/6
f 118/5/6 119/5/6 120/5/6
f 120/5/6 119/5/6 121/5/6
f 113/5/6 114/5/6 122/5/6
f 114/4/6 115/4/6 122/4/6
f 115/5/6 120/5/6 123/5/6
f 122/4/6 115/4/6 123/4/6
f 120/3/6 121/3/6 124/3/6
f 123/5/6 120/5/6 124/5/6
f 121/5/6 119/5/6 125/5/6
f 124/3/6 121/3/6 125/3/6
f 123/5/6 124/5/6 126/5/6
f 125/5/6 119/5/6 126/5/6
f 124/5/6 125/5/6 126/5/6
f 122/5/6 123/5/6 126/5/6
f 126/5/6 119/5/6 127/5/6
f 127/5/6 119/5/6 128/5/6
f 128/5/6 119/5/6 129/5/6
f 122/5/6 126/5/6 130/5/6
f 130/5/6 126/5/6 131/5/6
f 127/5/6 128/5/6 132/5/6
f 128/4/6 129/4/6 132/4/6
f 132/4/6 129/4/6 133/4/6
f 131/5/6 126/5/6 134/5/6
f 134/5/6 126/5/6 135/5/6
f 126/3/6 127/3/6 136/3/6
f 135/5/6 126/5/6 136/5/6
f 127/5/6 132/5/6 137/5/6
f 136/3/6 127/3/6 137/3/6
f 132/5/6 133/5/6 137/5/6
f 137/5/6 133/5/6 138/5/6
f 134/4/6 135/4/6 139/4/6
f 131/5/6 134/5/6 139/5/6
f 135/5/6 136/5/6 140/5/6
f 139/4/6 135/4/6 140/4/6
f 136/5/6 137/5/6 140/5/6
f 130/3/6 131/3/6 141/3/6
f 122/5/6 130/5/6 141/5/6
f 139/5/6 140/5/6 142/5/6
f 141/3/6 131/3/6 142/3/6
f 131/5/6 139/5/6 142/5/6
f 140/5/6 137/5/6 143/5/6
f 142/5/6 140/5/6 143/5/6
f 137/3/6 138/3/6 143/3/6
f 138/5/6 133/5/6 144/5/6
f 143/3/6 138/3/6 144/3/6
f 142/5/6 143/5/6 145/5/6
f 141/5/6 142/5/6 145/5/6
f 143/5/6 144/5/6 145/5/6
f 145/5/6 144/5/6 146/5/6
f 113/5/6 122/5/6 147/5/6
f 122/5/6 141/5/6 147/5/6
f 141/5/6 145/5/6 147/5/6
f 145/4/6 146/4/6 148/4/6
f 147/5/6 145/5/6 148/5/6
f 146/5/6 144/5/6 149/5/6
f 148/4/6 146/4/6 149/4/6
f 144/5/6 133/5/6 150/5/6
f 149/5/6 144/5/6 150/5/6
